# AST/ASF file generated using VICON BodyLanguage
# -----------------------------------------------
:version 1.10
:name VICON
:units
  mass 1.0
  length 0.45
  angle deg
:documentation
   .ast/.asf automatically generated from VICON data using
   VICON BodyBuilder and BodyLanguage model FoxedUp or BRILLIANT.MOD
:root
   order TX TY TZ RX RY RZ
   axis XYZ
   position 0 0 0  
   orientation 0 0 0 
:bonedata
  begin
     id 1 
     name lhipjoint
     direction 0.714689 -0.624256 0.315473 
     length 2.45343 
     axis 0 0 0  XYZ
  end
  begin
     id 2 
     name lfemur
     direction 0.34202 -0.939693 0  
     length 6.59069  
     axis 0 0 20  XYZ
    dof rx ry rz
    limits (-160.0 20.0)
           (-70.0 70.0)
           (-60.0 70.0)
  end
  begin
     id 3 
     name ltibia
     direction 0.34202 -0.939693 0   
     length 6.73476   
     axis 0 0 20   XYZ
    dof rx
    limits (-10.0 170.0)
  end
  begin
     id 4 
     name lfoot
     direction 0.0718085 -0.197292 0.977711   
     length 1.52607   
     axis -90 7.62852e-016 20   XYZ
    dof rx rz
    limits (-45.0 90.0)
           (-70.0 20.0)
  end
  begin
     id 5 
     name ltoes
     direction 1.53553e-011 -4.22024e-011 1   
     length 0.777832   
     axis -90 7.62852e-016 20   XYZ
    dof rx
    limits (-90.0 20.0)
  end
  begin
     id 6 
     name rhipjoint
     direction -0.727419 -0.612432 0.309497   
     length 2.50079  
     axis 0 0 0  XYZ 
  end
  begin
     id 7 
     name rfemur
     direction -0.34202 -0.939693 0   
     length 6.51665   
     axis 0 0 -20   XYZ
    dof rx ry rz
    limits (-160.0 20.0)
           (-70.0 70.0)
           (-70.0 60.0)
  end
  begin
     id 8 
     name rtibia
     direction -0.34202 -0.939693 0   
     length 6.48919   
     axis 0 0 -20   XYZ
    dof rx
    limits (-10.0 170.0)
 end
 begin
     id 9 
     name rfoot
     direction -0.112205 -0.308282 0.944655   
     length 1.68717  
     axis -90 -7.62852e-016 -20   XYZ
    dof rx rz
    limits (-45.0 90.0)
           (-20.0 70.0)
  end
  begin
     id 10 
     name rtoes
     direction -1.53583e-011 -4.21993e-011 1   
     length 0.846859   
     axis -90 -7.62852e-016 -20   XYZ
    dof rx
    limits (-90.0 20.0)
  end
  begin
     id 11 
     name lowerback
     direction -0.00119603 0.996364 -0.0851956   
     length 1.67242   
     axis 0 0 0   XYZ
    dof rx ry rz
    limits (-20.0 45.0)
           (-30.0 30.0)
           (-30.0 30.0)
  end
  begin
     id 12 
     name upperback
     direction -0.00531001 0.998318 0.0577248   
     length 1.64819   
     axis 0 0 0   XYZ
    dof rx ry rz
    limits (-20.0 45.0)
           (-30.0 30.0)
           (-30.0 30.0)
  end
  begin
     id 13 
     name thorax
     direction -0.00653676 0.995132 0.0983291   
     length 1.67429   
     axis 0 0 0   XYZ
    dof rx ry rz
    limits (-20.0 45.0)
           (-30.0 30.0)
           (-30.0 30.0)
  end
  begin
     id 14 
     name lowerneck
     direction 0.0141424 0.999886 0.00525412   
     length 1.59623   
     axis 0 0 0   XYZ
    dof rx ry rz
    limits (-20.0 45.0)
           (-30.0 30.0)
           (-30.0 30.0)
  end
  begin
     id 15 
     name upperneck
     direction -0.0640064 0.987178 -0.146232   
     length 1.59576   
     axis 0 0 0   XYZ
    dof rx ry rz
    limits (-20.0 45.0)
           (-30.0 30.0)
           (-30.0 30.0)
  end
  begin
     id 16
     name head
     direction -0.0222942 0.998496 -0.0500859  
     length 1.60959  
     axis 0 0 0   XYZ
    dof rx ry rz
    limits (-20.0 45.0)
           (-30.0 30.0)
           (-30.0 30.0)
  end
  begin
     id 17 
     name lclavicle
     direction 0.908549 0.392612 0.142806  
     length 2.80649  
     axis 0 0 0   XYZ
    dof ry rz
    limits (-20.0 10.0)
           (0.0 20.0)
  end
  begin
     id 18 
     name lhumerus
     direction 1 -4.48968e-011 1.08832e-028   
     length 4.2884   
     axis -180 -30 -90   XYZ
    dof rx ry rz
    limits (-60.0 90.0)
           (-90.0 90.0)
           (-90.0 90.0)
  end
  begin
     id 19
     name lradius
     direction 1 -4.48952e-011 -3.02642e-028   
     length 3.06552   
     axis -180 -30 -90   XYZ
    dof rx
    limits (-10.0 170.0)
  end
  begin
     id 20
     name lwrist
     direction 1 -4.49014e-011 1.58672e-027   
     length 1.53276   
     axis -1.65735e-015 90 90   XYZ
    dof ry
    limits (-180.0 0.0)
 end
  begin
     id 21 
     name lhand
     direction 1 -4.48928e-011 3.17344e-027   
     length 0.753045   
     axis -2.02492e-015 90 90   XYZ
    dof rx rz
    limits (-90.0 90.0)
           (-45.0 45.0)
  end
  begin
     id 22 
     name lfingers
     direction 1 -4.48958e-011 6.34687e-027   
     length 0.607124   
     axis -4.04985e-015 90 90   XYZ
    dof rx
    limits (0.0 90.0)
  end
  begin
     id 23
     name lthumb
     direction 0.707107 -6.34905e-011 0.707107   
     length 0.871712   
     axis -90 45 2.85299e-015   XYZ
    dof rx rz
    limits (-45.0 45.0)
           (-45.0 45.0)
  end
  begin
     id 24 
     name rclavicle
     direction -0.885098 0.45949 0.0739604   
     length 2.9478  
     axis 0 0 0   XYZ 
    dof ry rz
    limits (-10.0 20.0)
           (-20.0 0.0)
  end
  begin
     id 25 
     name rhumerus
     direction -1 -4.4898e-011 -2.61739e-027  
     length 4.52172   
     axis -180 30 90   XYZ
    dof rx ry rz
    limits (-90.0 60.0)
           (-90.0 90.0)
           (-90.0 90.0)
  end
  begin
     id 26 
     name rradius
     direction -1 -4.48945e-011 9.02552e-028   
     length 2.8914   
     axis -180 30 90   XYZ
    dof rx
    limits (-10.0 170.0)
  end
  begin
     id 27 
     name rwrist
     direction -1 -4.49018e-011 1.58672e-027   
     length 1.4457   
     axis -1.65735e-015 -90 -90   XYZ
    dof ry
    limits (-180.0 0.0)
  end
  begin
     id 28
     name rhand
     direction -1 -4.48825e-011 3.17344e-027   
     length 0.680541   
     axis -2.02492e-015 -90 -90   XYZ
    dof rx rz
    limits (-90.0 90.0)
           (-45.0 45.0)
  end
  begin
     id 29
     name rfingers
     direction -1 -4.49067e-011 6.34687e-027   
     length 0.54867   
     axis -4.04985e-015 -90 -90   XYZ
    dof rx
    limits (0.0 90.0)
  end
  begin
     id 30
     name rthumb
     direction -0.707107 -6.34833e-011 0.707107   
     length 0.787783   
     axis -90 -45 -2.85299e-015   XYZ
    dof rx rz
    limits (-45.0 45.0)
           (-45.0 45.0)
  end
:hierarchy
  begin
    root lhipjoint rhipjoint lowerback
    lhipjoint lfemur
    lfemur ltibia
    ltibia lfoot
    lfoot ltoes
    rhipjoint rfemur
    rfemur rtibia
    rtibia rfoot
    rfoot rtoes
    lowerback upperback
    upperback thorax
    thorax lowerneck lclavicle rclavicle
    lowerneck upperneck
    upperneck head
    lclavicle lhumerus
    lhumerus lradius
    lradius lwrist
    lwrist lhand lthumb
    lhand lfingers
    rclavicle rhumerus
    rhumerus rradius
    rradius rwrist
    rwrist rhand rthumb
    rhand rfingers
  end

#!OML:ASF E:\emotionWalksFemale\Project 1\Capture day 1\Session 1\Female1.ASF
:FULLY-SPECIFIED
:DEGREES
96
root 8.4602 15.5215 23.0886 -180.227 0.804804 -180.052
lowerback 5.57869 1.33528 0.776062
upperback -4.60944 1.97787 -0.084586
thorax -7.94138 0.97293 -0.775287
lowerneck -8.60936 -1.62008 -5.10743
upperneck 18.5941 -3.06576 4.80531
head 7.25115 -1.70554 2.10811
rclavicle -1.43063e-014 -3.8763e-015
rhumerus -47.8985 18.5132 -100.493
rradius 34.0915
rwrist 22.3786
rhand -0.974286 -51.259
rfingers 7.12502
rthumb -155.343 -259.691
lclavicle -1.43063e-014 -3.8763e-015
lhumerus -44.6968 -10.2394 94.8155
lradius 35.9739
lwrist -10.6349
lhand -1.71061 -38.5602
lfingers 7.12502
lthumb 23.9509 -10.0341
rfemur 1.36824 16.5873 26.7444
rtibia 15.0725
rfoot -17.3966 -30.4385
rtoes 4.61716
lfemur -3.79443 -20.3322 -25.9172
ltibia 20.4127
lfoot -20.7045 18.5986
ltoes -18.9239
97
root 8.46098 15.5211 23.09 -180.252 0.851295 -180.019
lowerback 5.61146 1.35723 0.822212
upperback -4.60852 2.01118 -0.0874486
thorax -7.95739 0.986166 -0.809174
lowerneck -8.60995 -1.62262 -5.15589
upperneck 18.6098 -3.07974 4.88397
head 7.25879 -1.7098 2.14067
rclavicle -1.7024e-014 -3.35449e-015
rhumerus -47.8419 18.4365 -100.443
rradius 34.1567
rwrist 22.0006
rhand -0.205407 -51.5055
rfingers 7.12502
rthumb -154.606 -259.834
lclavicle -1.7024e-014 -3.35449e-015
lhumerus -44.7358 -10.3301 94.8323
lradius 36.0464
lwrist -10.5698
lhand -1.59025 -38.4953
lfingers 7.12502
lthumb 24.0663 -9.98442
rfemur 1.37575 16.6538 26.7851
rtibia 15.0766
rfoot -17.4606 -30.3919
rtoes 4.74166
lfemur -3.77942 -20.2671 -25.8813
ltibia 20.4227
lfoot -20.808 18.6001
ltoes -19.1922
98
root 8.4623 15.5208 23.0914 -180.28 0.867171 -179.976
lowerback 5.61527 1.3616 0.876027
upperback -4.57813 2.01942 -0.0898317
thorax -7.92486 0.986567 -0.842186
lowerneck -8.65264 -1.61184 -5.21768
upperneck 18.6528 -3.0767 4.98422
head 7.28236 -1.70451 2.18389
rclavicle 9.16273e-015 4.12478e-015
rhumerus -47.7802 18.4234 -100.428
rradius 34.1359
rwrist 22.1523
rhand -0.21623 -51.247
rfingers 7.12502
rthumb -154.617 -259.577
lclavicle 9.16273e-015 4.12478e-015
lhumerus -44.694 -10.3446 94.7988
lradius 36.0691
lwrist -10.589
lhand -1.79418 -38.593
lfingers 7.12502
lthumb 23.8708 -10.0564
rfemur 1.39458 16.6939 26.8451
rtibia 15.0558
rfoot -17.5569 -30.4196
rtoes 4.90988
lfemur -3.76857 -20.2129 -25.8341
ltibia 20.4498
lfoot -20.9145 18.5907
ltoes -19.3496
99
root 8.46392 15.5217 23.0938 -180.277 0.920782 -179.983
lowerback 5.55988 1.36393 0.832729
upperback -4.54478 2.01727 -0.0732986
thorax -7.85861 0.988552 -0.797836
lowerneck -8.67245 -1.60657 -5.25045
upperneck 18.6854 -3.06567 4.98014
head 7.29631 -1.70235 2.18897
rclavicle -4.2894e-015 3.72721e-016
rhumerus -47.7787 18.5393 -100.461
rradius 34.0692
rwrist 22.5686
rhand -0.468697 -50.9863
rfingers 7.12502
rthumb -154.859 -259.351
lclavicle -4.2894e-015 3.72721e-016
lhumerus -44.5842 -10.1943 94.73
lradius 36.015
lwrist -10.7391
lhand -1.98033 -38.6867
lfingers 7.12502
lthumb 23.6923 -10.1268
rfemur 1.38245 16.6286 26.8251
rtibia 15.0165
rfoot -17.6162 -30.3259
rtoes 5.12928
lfemur -3.8015 -20.1499 -25.8282
ltibia 20.492
lfoot -20.8602 18.6045
ltoes -19.0921
100
root 8.46495 15.5223 23.0959 -180.28 0.979162 -179.975
lowerback 5.53965 1.36683 0.789134
upperback -4.52676 2.01734 -0.0522047
thorax -7.82962 0.991577 -0.750256
lowerneck -8.62521 -1.64708 -5.13035
upperneck 18.6099 -3.09962 4.7989
head 7.26124 -1.72409 2.10666
rclavicle 1.82323e-015 -1.01877e-015
rhumerus -47.7543 18.6218 -100.484
rradius 34.0353
rwrist 22.5984
rhand -0.989121 -50.8001
rfingers 7.12502
rthumb -155.357 -259.234
lclavicle 1.82323e-015 -1.01877e-015
lhumerus -44.4861 -10.0795 94.668
lradius 35.9615
lwrist -10.7923
lhand -1.92098 -38.619
lfingers 7.12502
lthumb 23.7492 -10.0665
rfemur 1.39062 16.5116 26.8154
rtibia 14.9714
rfoot -17.477 -30.173
rtoes 4.90898
lfemur -3.83272 -20.102 -25.8083
ltibia 20.5349
lfoot -20.7954 18.5828
ltoes -18.6959
101
root 8.46551 15.5218 23.0975 -180.313 0.988191 -179.983
lowerback 5.57492 1.3792 0.776417
upperback -4.5108 2.0295 -0.0773652
thorax -7.83231 0.996721 -0.771704
lowerneck -8.5992 -1.69763 -5.03117
upperneck 18.5424 -3.16544 4.72688
head 7.23585 -1.75321 2.06068
rclavicle -3.12465e-015 -1.6524e-015
rhumerus -47.7204 18.5673 -100.488
rradius 34.0105
rwrist 22.6361
rhand -1.64892 -50.3876
rfingers 7.12502
rthumb -155.99 -258.906
lclavicle -3.12465e-015 -1.6524e-015
lhumerus -44.4582 -10.2006 94.6586
lradius 35.9883
lwrist -10.6696
lhand -2.00707 -38.4833
lfingers 7.12502
lthumb 23.6666 -9.92011
rfemur 1.43851 16.4655 26.8095
rtibia 14.9352
rfoot -17.191 -30.1356
rtoes 4.73367
lfemur -3.82724 -20.0732 -25.8237
ltibia 20.5644
lfoot -20.7928 18.5406
ltoes -19.0263
102
root 8.46619 15.5222 23.0994 -180.333 0.975177 -180.014
lowerback 5.60506 1.38834 0.761846
upperback -4.50543 2.03727 -0.113098
thorax -7.84315 0.999728 -0.802789
lowerneck -8.69057 -1.71049 -5.08334
upperneck 18.6726 -3.20269 4.81951
head 7.2985 -1.76898 2.09567
rclavicle 1.23751e-014 -1.2424e-017
rhumerus -47.7691 18.5085 -100.492
rradius 34.0811
rwrist 22.7655
rhand -1.55161 -50.291
rfingers 7.12502
rthumb -155.897 -258.797
lclavicle 1.23751e-014 -1.2424e-017
lhumerus -44.4791 -10.3632 94.6665
lradius 36.0634
lwrist -10.4806
lhand -2.13495 -38.4452
lfingers 7.12502
lthumb 23.5439 -9.86628
rfemur 1.47255 16.4953 26.7889
rtibia 14.9044
rfoot -17.0503 -30.1638
rtoes 4.82017
lfemur -3.83022 -19.9916 -25.8555
ltibia 20.593
lfoot -20.7705 18.4732
ltoes -19.5317
